<?xml version="1.0" encoding="UTF-8" standalone="no"?>
<!-- Created with Inkscape (http://www.inkscape.org/) -->

<svg
   xmlns:ns0="http://www.iki.fi/pav/software/textext/"
   xmlns:dc="http://purl.org/dc/elements/1.1/"
   xmlns:cc="http://creativecommons.org/ns#"
   xmlns:rdf="http://www.w3.org/1999/02/22-rdf-syntax-ns#"
   xmlns:svg="http://www.w3.org/2000/svg"
   xmlns="http://www.w3.org/2000/svg"
   xmlns:xlink="http://www.w3.org/1999/xlink"
   xmlns:sodipodi="http://sodipodi.sourceforge.net/DTD/sodipodi-0.dtd"
   xmlns:inkscape="http://www.inkscape.org/namespaces/inkscape"
   inkscape:version="0.91 r13725"
   version="1.1"
   id="svg2"
   viewBox="0 0 771.00002 813.00001"
   height="229.44667mm"
   width="217.59334mm"
   inkscape:export-filename="/home/jannick/python_programs/OpenDFT/data/artwork/gaas_cubic_with_header.png"
   inkscape:export-xdpi="300"
   inkscape:export-ydpi="300"
   sodipodi:docname="splash.svg">
  <sodipodi:namedview
     inkscape:window-maximized="1"
     inkscape:window-y="0"
     inkscape:window-x="0"
     inkscape:window-height="1026"
     inkscape:window-width="1920"
     fit-margin-bottom="0"
     fit-margin-right="0"
     fit-margin-left="0"
     fit-margin-top="0"
     showgrid="false"
     inkscape:current-layer="layer1"
     inkscape:document-units="px"
     inkscape:cy="467.19026"
     inkscape:cx="70.156867"
     inkscape:zoom="0.7"
     inkscape:pageshadow="2"
     inkscape:pageopacity="0.0"
     borderopacity="1.0"
     bordercolor="#666666"
     pagecolor="#ffffff"
     id="base" />
  <defs
     id="defs4" />
  <metadata
     id="metadata7">
    <rdf:RDF>
      <cc:Work
         rdf:about="">
        <dc:format>image/svg+xml</dc:format>
        <dc:type
           rdf:resource="http://purl.org/dc/dcmitype/StillImage" />
        <dc:title />
      </cc:Work>
    </rdf:RDF>
  </metadata>
  <g
     inkscape:label="Layer 1"
     inkscape:groupmode="layer"
     id="layer1"
     transform="translate(2.6428528,-248.71935)">
    <image
       sodipodi:absref="/home/jannick/python_programs/OpenDFT/data/artwork/gaas_cubic.png"
       xlink:href="gaas_cubic.png"
       y="248.71935"
       x="-2.6428528"
       id="image4179"
       preserveAspectRatio="none"
       height="813"
       width="771" />
    <g
       style="font-style:normal;font-variant:normal;font-weight:normal;font-stretch:normal;letter-spacing:normal;word-spacing:normal;text-anchor:start;fill:none;fill-opacity:1;fill-rule:evenodd;stroke:#000000;stroke-linecap:butt;stroke-linejoin:miter;stroke-miterlimit:10.43299961;stroke-dasharray:none;stroke-dashoffset:0;stroke-opacity:1"
       ns0:preamble="/home/jannick/Documents/dissertation/fig/preamble.tex"
       ns0:text="OpenDFT"
       text-anchor="start"
       word-spacing="normal"
       letter-spacing="normal"
       font-size-adjust="none"
       font-stretch="normal"
       font-weight="normal"
       font-variant="normal"
       font-style="normal"
       fill-opacity="1"
       fill-rule="evenodd"
       fill="none"
       stroke-opacity="1"
       stroke-dashoffset="0"
       stroke-dasharray="none"
       stroke-miterlimit="10.433"
       stroke-linejoin="miter"
       stroke-linecap="butt"
       stroke="black"
       xml:space="preserve"
       transform="matrix(10,0,0,-10,-2070.3929,5116.0806)"
       id="content"><path
         id="path4149"
         fill="black"
         stroke-width="0"
         d="M227.44,484.28 L227.27,483.86 C228.98,483.86,229.98,482.65,229.98,480.58 C229.98,478.62,229.07,477.45,227.52,477.45 C225.85,477.45,224.72,478.86,224.72,480.99 C224.72,482.83,225.64,483.86,227.27,483.86 H227.27 L227.44,484.28 C225.17,484.28,223.65,482.81,223.65,480.62 C223.65,478.54,225.11,477.04,227.12,477.04 C229.35,477.04,231.05,478.7,231.05,480.88 C231.05,482.97,229.65,484.28,227.44,484.28 Z " /><path
         id="path4151"
         fill="black"
         stroke-width="0"
         d="M231.36,481.21 H231.73 C232.13,481.21,232.17,481.14,232.17,480.48 V475.49 C232.17,474.86,232.14,474.79,231.8,474.77 L231.34,474.74 V474.44 C232.34,474.47,232.34,474.47,232.59,474.47 C232.84,474.47,232.84,474.47,233.84,474.44 V474.74 L233.38,474.77 C233.04,474.79,233.01,474.86,233.01,475.49 V477.36 C233.31,477.18,233.63,477.12,234.07,477.12 C234.36,477.12,234.62,477.17,234.78,477.27 L235.92,478.01 C236.32,478.27,236.79,479.29,236.79,479.93 C236.79,481.03,235.87,481.89,234.71,481.89 C234.34,481.89,233.99,481.8,233.82,481.65 L233.01,480.9 L233.19,480.69 C233.48,481.06,233.88,481.25,234.38,481.25 C235.32,481.25,235.92,480.59,235.92,479.56 C235.92,478.45,235.25,477.62,234.35,477.62 C233.8,477.62,233.4,477.8,233.01,478.21 V480.27 C233.01,480.41,233.06,480.52,233.19,480.69 L233.01,480.9 V481.85 L232.92,481.89 C232.41,481.68,231.89,481.55,231.36,481.49 Z " /><path
         id="path4153"
         fill="black"
         stroke-width="0"
         d="M241.61,477.93 L241.48,478.03 C240.84,477.65,240.61,477.56,240.18,477.56 C239.53,477.56,238.99,477.85,238.72,478.34 C238.53,478.67,238.46,478.94,238.44,479.52 H239.89 C240.58,479.52,241.01,479.55,241.7,479.66 C241.71,479.8,241.72,479.89,241.72,480.01 C241.72,481.15,240.98,481.89,239.86,481.89 L239.74,481.57 C240.07,481.57,240.33,481.44,240.51,481.17 C240.73,480.84,240.8,480.55,240.83,479.89 H240.83 C240.31,479.87,240.07,479.86,239.71,479.86 C239.25,479.86,238.99,479.87,238.46,479.92 C238.46,480.38,238.5,480.6,238.63,480.86 C238.84,481.3,239.26,481.57,239.74,481.57 L239.86,481.89 C239.49,481.89,239.07,481.77,238.66,481.53 C237.84,481.06,237.51,480.44,237.51,479.41 C237.51,478.79,237.66,478.25,237.93,477.87 C238.33,477.34,238.99,477.04,239.74,477.04 C240.11,477.04,240.48,477.12,240.89,477.3 C241.16,477.4,241.37,477.53,241.41,477.59 Z " /><path
         id="path4155"
         fill="black"
         stroke-width="0"
         d="M246.11,477.2 L246.14,477.21 L246.17,477.21 L246.19,477.21 L246.22,477.21 L246.24,477.21 L246.27,477.21 L246.29,477.21 L246.31,477.21 L246.33,477.22 L246.36,477.22 L246.38,477.22 L246.39,477.22 L246.41,477.22 L246.43,477.22 L246.45,477.22 L246.47,477.22 L246.48,477.22 L246.5,477.22 L246.53,477.23 L246.56,477.23 L246.58,477.23 L246.61,477.23 L246.63,477.23 L246.65,477.23 L246.67,477.23 L246.69,477.23 L246.7,477.23 L246.72,477.23 L246.74,477.23 L246.75,477.23 L246.76,477.23 L246.79,477.23 L246.81,477.23 L246.84,477.23 L246.85,477.23 L246.87,477.23 L246.88,477.23 L246.9,477.23 C247.04,477.23,247.04,477.23,247.73,477.2 V477.5 L247.32,477.53 C246.98,477.55,246.95,477.61,246.95,478.25 V480.17 C246.95,481.33,246.4,481.89,245.28,481.89 C244.91,481.89,244.71,481.82,244.49,481.65 L243.74,480.99 V481.85 L243.65,481.89 C243.14,481.68,242.62,481.55,242.09,481.49 V481.21 H242.46 C242.86,481.21,242.9,481.14,242.9,480.48 V478.25 C242.9,477.62,242.87,477.55,242.53,477.53 L242.08,477.5 V477.2 C242.76,477.23,243.03,477.23,243.32,477.23 C243.61,477.23,243.88,477.23,244.55,477.2 V477.5 L244.11,477.53 C243.77,477.55,243.74,477.62,243.74,478.25 V480.35 C243.74,480.8,244.4,481.29,245,481.29 C245.67,481.29,246.11,480.79,246.11,480.03 Z " /><path
         id="path4157"
         fill="black"
         stroke-width="0"
         d="M248.39,477.43 V477.2 C249.55,477.23,249.55,477.23,249.77,477.23 C249.95,477.23,250.11,477.23,250.29,477.23 C251.08,477.2,251.08,477.2,251.22,477.2 C252.5,477.2,253.46,477.53,254.15,478.22 C254.87,478.92,255.31,480,255.31,481.06 C255.31,482.91,253.93,484.11,251.83,484.11 C251.76,484.11,251.63,484.11,251.45,484.1 C250.95,484.09,250.52,484.08,250.09,484.08 L249.9,483.63 C250.15,483.68,250.5,483.71,251,483.71 C251.73,483.71,252.53,483.58,252.95,483.39 C253.16,483.3,253.35,483.17,253.53,482.99 C254.01,482.51,254.24,481.8,254.24,480.8 C254.24,479.69,253.9,478.83,253.24,478.3 C252.65,477.81,252.05,477.64,250.92,477.64 C250.46,477.64,250.15,477.66,249.9,477.72 V483.63 L250.09,484.08 C249.73,484.08,249.18,484.09,248.04,484.11 V483.81 L248.44,483.78 C248.9,483.75,248.95,483.66,248.95,482.89 V478.18 C248.95,477.89,248.86,477.67,248.7,477.59 Z " /><path
         id="path4159"
         fill="black"
         stroke-width="0"
         d="M257.68,480.48 L257.74,480.49 L257.79,480.49 L257.85,480.49 L257.9,480.5 L257.96,480.5 L258.01,480.5 L258.07,480.5 L258.14,480.51 L258.2,480.51 L258.26,480.51 L258.33,480.51 L258.4,480.51 L258.48,480.51 L258.51,480.51 L258.55,480.51 L258.59,480.51 L258.63,480.51 L258.67,480.51 L258.71,480.51 C259.45,480.51,259.72,480.48,259.9,480.39 L259.98,480.15 L260.03,479.56 H260.33 C260.3,480.48,260.3,480.48,260.3,480.66 C260.3,480.82,260.3,480.82,260.33,481.82 H260.03 L259.98,481.3 C259.97,481.21,259.94,481.12,259.9,481.04 C259.72,480.96,259.44,480.93,258.78,480.93 C258.36,480.93,258.02,480.94,257.68,480.96 V483.61 C257.98,483.68,258.16,483.69,258.75,483.69 C259.23,483.69,259.79,483.63,260.1,483.55 C260.34,483.49,260.37,483.44,260.37,483.21 V482.57 H260.72 C260.72,483.17,260.77,483.64,260.88,484.08 C260.39,484.1,260.09,484.11,259.66,484.11 L258.59,484.1 C258.1,484.08,257.76,484.08,257.51,484.08 C257.22,484.08,257.22,484.08,255.75,484.11 V483.81 L256.23,483.78 C256.69,483.75,256.74,483.67,256.74,482.89 V478.43 C256.74,477.64,256.69,477.56,256.23,477.53 L255.75,477.5 V477.2 C256.34,477.23,256.69,477.23,257.21,477.23 C257.73,477.23,258.08,477.23,258.67,477.2 V477.5 L258.19,477.53 C257.73,477.56,257.68,477.64,257.68,478.43 Z " /><path
         id="path4161"
         fill="black"
         stroke-width="0"
         d="M263.61,483.62 L263.62,483.56 L263.62,483.5 L263.63,483.44 L263.63,483.38 L263.64,483.33 L263.64,483.27 L263.64,483.22 L263.64,483.16 L263.65,483.1 L263.65,483.04 L263.65,482.98 L263.65,482.92 L263.65,482.88 L263.65,482.85 L263.65,482.82 L263.65,482.78 L263.65,482.74 L263.65,482.71 L263.65,482.67 L263.65,482.63 V478.43 C263.65,477.64,263.6,477.56,263.14,477.53 L262.67,477.5 V477.2 C263.26,477.23,263.6,477.23,264.12,477.23 C264.64,477.23,265,477.23,265.59,477.2 V477.5 L265.11,477.53 C264.65,477.56,264.6,477.64,264.6,478.43 V482.63 C264.6,483.08,264.61,483.3,264.64,483.62 H266.19 C266.46,483.62,266.58,483.53,266.58,483.3 L266.62,482.51 H266.93 C266.93,483.16,266.95,483.54,267,484.11 C266.29,484.1,265.96,484.1,265.68,484.09 C265.29,484.08,265,484.08,264.85,484.08 H263.27 C263.17,484.08,262.64,484.09,261.93,484.1 L261.25,484.11 C261.3,483.54,261.32,483.16,261.32,482.51 H261.63 L261.67,483.3 C261.68,483.53,261.79,483.62,262.07,483.62 Z " /></g>  </g>
</svg>
